<svg preserveAspectRatio="none" width="100%" height="100%" overflow="visible" style="display: block;" viewBox="0 0 39.998 40" fill="none" xmlns="http://www.w3.org/2000/svg">
<path id="Line" d="M20 0C31.017 0 39.9517 8.9079 39.998 19.9141C39.8327 19.8073 39.6649 19.7042 39.4941 19.6055C39.284 9.01805 30.6377 0.5 20 0.5C9.23045 0.5 0.5 9.23045 0.5 20C0.5 30.7696 9.23045 39.5 20 39.5C21.841 39.5 23.6222 39.2444 25.3105 38.7676C25.4538 38.9014 25.6004 39.0314 25.75 39.1582C23.9287 39.7041 21.999 40 20 40C8.95431 40 0 31.0457 0 20C0 8.95431 8.95431 0 20 0Z" fill="var(--fill-0, white)"/>
</svg>
