<svg preserveAspectRatio="none" width="100%" height="100%" overflow="visible" style="display: block;" viewBox="0 0 15.5854 15.587" fill="none" xmlns="http://www.w3.org/2000/svg">
<path id="Union" fill-rule="evenodd" clip-rule="evenodd" d="M6.09556 7.79349L0.146432 13.7431C-0.0488102 13.9384 -0.0488104 14.2549 0.146432 14.4502L1.13634 15.4402C1.3316 15.6355 1.64821 15.6355 1.84348 15.4402L7.79254 9.49062L13.7419 15.4405C13.9372 15.6358 14.2538 15.6358 14.4491 15.4405L15.439 14.4505C15.6342 14.2553 15.6342 13.9387 15.439 13.7434L9.48953 7.79349L15.439 1.84353C15.6342 1.64827 15.6342 1.33171 15.439 1.13645L14.4491 0.146461C14.2538 -0.0488209 13.9372 -0.0488203 13.7419 0.146462L7.79254 6.09636L1.84348 0.146781C1.64821 -0.0485008 1.33161 -0.0485009 1.13634 0.146781L0.146432 1.13677C-0.0488101 1.33203 -0.048811 1.64859 0.146431 1.84385L6.09556 7.79349Z" fill="var(--fill-0, #0F0F12)"/>
</svg>
