<svg preserveAspectRatio="none" width="100%" height="100%" overflow="visible" style="display: block;" viewBox="0 0 22 11.3333" fill="none" xmlns="http://www.w3.org/2000/svg">
<path id="Border" opacity="0.35" fill-rule="evenodd" clip-rule="evenodd" d="M18.5815 0.5H3.41851C2.37142 0.5 1.98469 0.591351 1.60001 0.797084C1.25386 0.982204 0.982204 1.25386 0.797083 1.60001C0.591351 1.98469 0.5 2.37142 0.5 3.41851V7.91482C0.5 8.96191 0.591351 9.34864 0.797083 9.73333C0.982204 10.0795 1.25386 10.3511 1.60001 10.5363C1.98469 10.742 2.37142 10.8333 3.41851 10.8333H18.5815C19.6286 10.8333 20.0153 10.742 20.4 10.5363C20.7461 10.3511 21.0178 10.0795 21.2029 9.73333C21.4086 9.34864 21.5 8.96191 21.5 7.91482V3.41851C21.5 2.37142 21.4086 1.98469 21.2029 1.60001C21.0178 1.25386 20.7461 0.982204 20.4 0.797084C20.0153 0.591351 19.6286 0.5 18.5815 0.5Z" stroke="var(--stroke-0, #090C14)"/>
</svg>
