<svg preserveAspectRatio="none" width="100%" height="100%" overflow="visible" style="display: block;" viewBox="0 0 23.8196 24.7231" fill="none" xmlns="http://www.w3.org/2000/svg">
<path id="Union" d="M7.6953 2.36763L7.1968 1.35911L7.1968 1.35911L7.6953 2.36763ZM21.832 6.50435L22.8516 6.02895L22.8516 6.02891L21.832 6.50435ZM18.8447 18.6186L18.0978 17.7774C17.9038 17.9496 17.7753 18.1836 17.734 18.4397L18.8447 18.6186ZM18.2012 22.6147L19.3118 22.7938L19.3118 22.7936L18.2012 22.6147ZM16.4512 23.4311L15.8745 24.3971L15.8745 24.3971L16.4512 23.4311ZM13.1553 21.4633L13.732 20.4974C13.4919 20.3541 13.2071 20.3053 12.933 20.3605L13.1553 21.4633ZM1.99022 16.312L0.970625 16.7874L0.970656 16.7875L1.99022 16.312ZM7.6953 2.36763L8.19379 3.37616C13.2116 0.895938 18.798 2.65976 20.8124 6.9798L21.832 6.50435L22.8516 6.02891C20.2099 0.363743 13.1374 -1.57723 7.1968 1.35911L7.6953 2.36763ZM21.832 6.50435L20.8124 6.97975C22.4661 10.5265 21.3266 14.9104 18.0978 17.7774L18.8447 18.6186L19.5917 19.4599C23.4337 16.0484 24.9953 10.6267 22.8516 6.02895L21.832 6.50435ZM18.8447 18.6186L17.734 18.4397L17.0905 22.4358L18.2012 22.6147L19.3118 22.7936L19.9554 18.7975L18.8447 18.6186ZM18.2012 22.6147L17.0905 22.4356C17.0892 22.4435 17.0876 22.4476 17.0869 22.4493C17.086 22.4512 17.0851 22.4527 17.084 22.4542C17.0814 22.4575 17.0758 22.4628 17.0667 22.467C17.0575 22.4713 17.05 22.4722 17.0459 22.472C17.0441 22.4719 17.0425 22.4717 17.0406 22.4711C17.0388 22.4706 17.0346 22.4692 17.0279 22.4652L16.4512 23.4311L15.8745 24.3971C17.2652 25.2274 19.0541 24.3918 19.3118 22.7938L18.2012 22.6147ZM16.4512 23.4311L17.0279 22.4652L13.732 20.4974L13.1553 21.4633L12.5786 22.4293L15.8745 24.3971L16.4512 23.4311ZM13.1553 21.4633L12.933 20.3605C8.72933 21.2078 4.67121 19.3988 3.00979 15.8365L1.99022 16.312L0.970656 16.7875C3.1394 21.4376 8.323 23.585 13.3776 22.5662L13.1553 21.4633ZM1.99022 16.312L3.00982 15.8365C0.983819 11.4918 3.16504 5.86182 8.1938 3.37616L7.6953 2.36763L7.1968 1.35911C1.26721 4.29004 -1.65953 11.147 0.970625 16.7874L1.99022 16.312Z" fill="var(--stroke-0, white)"/>
</svg>
