<svg preserveAspectRatio="none" width="100%" height="100%" overflow="visible" style="display: block;" viewBox="0 0 18 18" fill="none" xmlns="http://www.w3.org/2000/svg">
<g id="Mask group">
<mask id="mask0_9_7713" style="mask-type:alpha" maskUnits="userSpaceOnUse" x="0" y="0" width="18" height="18">
<rect id="Rectangle 41443" width="18" height="18" fill="var(--fill-0, black)"/>
</mask>
<g mask="url(#mask0_9_7713)">
<path id="Union" d="M14.1903 11.1458C12.9696 12.9481 12.2122 15.0046 12.5116 17.0384C12.5544 17.3203 12.4108 17.5951 12.1542 17.721C11.895 17.8418 11.5874 17.7818 11.3886 17.5755C9.94857 16.0651 7.88139 15.3646 5.72644 15.2035C7.14122 14.8485 8.7253 14.2952 10.3163 13.5199C11.7991 12.7948 13.1107 11.9686 14.1932 11.1429L14.1903 11.1458ZM3.61902 0.195652C3.85314 0.0823667 4.13275 0.160792 4.27625 0.377293C7.82819 5.75407 11.6194 7.23929 16.5155 6.33823C16.8779 6.27027 17.2433 6.45388 17.412 6.78354L17.4276 6.81382C17.5686 7.0882 17.5428 7.40795 17.3817 7.65464C17.3239 7.72004 17.256 7.79304 17.1805 7.8685C16.9666 8.04724 16.7547 8.23423 16.5458 8.42807C15.2114 9.50301 12.7265 11.0581 9.74109 12.513C6.75317 13.968 3.99458 14.9681 2.32801 15.3558C2.03855 15.4011 1.74859 15.4536 1.46668 15.514L1.47449 15.5169C1.38901 15.527 1.30816 15.5339 1.23523 15.5365C0.933194 15.5163 0.658724 15.338 0.525272 15.0511L0.509647 15.0208C0.353623 14.686 0.434901 14.2861 0.711795 14.0394C4.42499 10.7491 5.40147 6.9369 3.3573 0.824558C3.2744 0.57793 3.385 0.308902 3.61902 0.195652Z" fill="var(--fill-0, #0F0F12)"/>
</g>
</g>
</svg>
