<svg preserveAspectRatio="none" width="100%" height="100%" overflow="visible" style="display: block;" viewBox="0 0 18 7.33333" fill="none" xmlns="http://www.w3.org/2000/svg">
<path id="Capacity" d="M1.70926 0H16.2907C16.8851 0 17.1006 0.0618839 17.3179 0.178089C17.5352 0.294293 17.7057 0.464819 17.8219 0.682103C17.9381 0.899387 18 1.11491 18 1.70926V5.62408C18 6.21842 17.9381 6.43395 17.8219 6.65123C17.7057 6.86851 17.5352 7.03904 17.3179 7.15524C17.1006 7.27145 16.8851 7.33333 16.2907 7.33333H1.70926C1.11491 7.33333 0.899387 7.27145 0.682103 7.15524C0.464819 7.03904 0.294293 6.86851 0.178088 6.65123C0.0618837 6.43395 0 6.21842 0 5.62408V1.70926C0 1.11491 0.0618837 0.899387 0.178088 0.682103C0.294293 0.464819 0.464819 0.294293 0.682103 0.178089C0.899387 0.0618839 1.11491 0 1.70926 0Z" fill="var(--fill-0, #090C14)"/>
</svg>
