<svg xmlns="http://www.w3.org/2000/svg" width="14" height="14" viewBox="0 0 14 14" fill="none">
  <path fill-rule="evenodd" clip-rule="evenodd" d="M3.70622 0.573921C5.11663 -0.0523169 6.70054 -0.170143 8.18808 0.240521C9.67562 0.651184 10.9747 1.56493 11.8641 2.82606C12.7535 4.08719 13.178 5.61768 13.0655 7.15676C12.9529 8.69583 12.3102 10.1483 11.2468 11.2666C10.1834 12.3849 8.76512 13.0999 7.23366 13.2897C5.7022 13.4796 4.15229 13.1325 2.84801 12.3078C1.54373 11.483 0.565787 10.2314 0.0808079 8.76645C-0.0349033 8.41692 0.154648 8.03976 0.504182 7.92405C0.853717 7.80834 1.23087 7.99789 1.34659 8.34742C1.73462 9.51957 2.51708 10.5209 3.56064 11.1808C4.6042 11.8408 5.84429 12.1184 7.06963 11.9665C8.29496 11.8146 9.42971 11.2425 10.2805 10.3478C11.1314 9.45301 11.6456 8.29092 11.7357 7.0595C11.8258 5.82807 11.4861 4.60352 10.7745 3.59448C10.0629 2.58544 9.02345 1.85435 7.83326 1.52578C6.64307 1.1972 5.37577 1.29147 4.2473 1.79253C3.43235 2.15438 2.72622 2.71221 2.18793 3.40974H3.6007C3.96889 3.40974 4.26737 3.70822 4.26737 4.07641C4.26737 4.4446 3.96889 4.74308 3.6007 4.74308H0.666649C0.298459 4.74308 -1.78863e-05 4.4446 -1.78863e-05 4.07641V1.14236C-1.78863e-05 0.774169 0.298459 0.475693 0.666649 0.475693C1.03484 0.475693 1.33332 0.774169 1.33332 1.14236V2.34724C1.97706 1.59083 2.78615 0.982442 3.70622 0.573921Z" fill="#ddeaf0" fill-opacity="0.3"/>
</svg>
