<svg preserveAspectRatio="none" width="100%" height="100%" overflow="visible" style="display: block;" viewBox="0 0 19.6249 20.0106" fill="none" xmlns="http://www.w3.org/2000/svg">
<path id="Outlined" fill-rule="evenodd" clip-rule="evenodd" d="M14.0655 0.860882C11.9499 -0.0784754 9.57407 -0.255214 7.34276 0.360781C5.11145 0.976775 3.16275 2.34739 1.82871 4.23909C0.494666 6.13079 -0.142186 8.42652 0.0266659 10.7351C0.195517 13.0437 1.15963 15.2224 2.75472 16.8998C4.34981 18.5773 6.47719 19.6498 8.77438 19.9346C11.0716 20.2194 13.3964 19.6988 15.3529 18.4616C17.3093 17.2244 18.7762 15.3472 19.5037 13.1497C19.6772 12.6254 19.3929 12.0596 18.8686 11.8861C18.3443 11.7125 17.7786 11.9968 17.605 12.5211C17.0229 14.2794 15.8493 15.7814 14.2839 16.7713C12.7186 17.7611 10.8584 18.1776 9.02044 17.9498C7.18244 17.7219 5.48031 16.8638 4.20407 15.5217C2.92783 14.1795 2.15644 12.4364 2.02134 10.5892C1.88624 8.74211 2.39579 6.90528 3.46316 5.39172C4.53054 3.87816 6.0897 2.78152 7.87499 2.28866C9.66027 1.7958 11.5612 1.93721 13.2539 2.6888C14.4764 3.23157 15.5356 4.06831 16.343 5.11462H14.2238C13.6715 5.11462 13.2238 5.56233 13.2238 6.11462C13.2238 6.6669 13.6715 7.11462 14.2238 7.11462H18.6249C19.1772 7.11462 19.6249 6.6669 19.6249 6.11462V1.71354C19.6249 1.16125 19.1772 0.713539 18.6249 0.713539C18.0726 0.713539 17.6249 1.16125 17.6249 1.71354V3.52087C16.6593 2.38624 15.4456 1.47366 14.0655 0.860882Z" fill="var(--fill-0, #DDEAF0)"/>
</svg>
