<svg preserveAspectRatio="none" width="100%" height="100%" overflow="visible" style="display: block;" viewBox="0 0 32 32" fill="none" xmlns="http://www.w3.org/2000/svg">
<path id="Rectangle 1746713690" opacity="0" d="M4.7979e-08 20.8C3.19611e-08 13.5193 2.39521e-08 9.87898 1.41692 7.09812C2.66327 4.65202 4.65202 2.66327 7.09812 1.41692C9.87898 -2.14292e-08 13.5193 -2.93257e-08 20.8 -4.51187e-08L45.2 -9.80464e-08C52.4807 -1.13839e-07 56.121 -1.21736e-07 58.9019 1.41692C61.348 2.66327 63.3367 4.65202 64.5831 7.09812C66 9.87898 66 13.5193 66 20.8L66 104.2C66 111.481 66 115.121 64.5831 117.902C63.3367 120.348 61.348 122.337 58.9019 123.583C56.121 125 52.4807 125 45.2 125L20.8 125C13.5193 125 9.87898 125 7.09812 123.583C4.65202 122.337 2.66327 120.348 1.41692 117.902C2.55491e-07 115.121 2.47482e-07 111.481 2.31464e-07 104.2L4.7979e-08 20.8Z" fill="var(--fill-0, black)" fill-opacity="0.32"/>
</svg>
