<svg preserveAspectRatio="none" width="100%" height="100%" overflow="visible" style="display: block;" viewBox="0 0 17.5966 17.9424" fill="none" xmlns="http://www.w3.org/2000/svg">
<path id="Outlined" fill-rule="evenodd" clip-rule="evenodd" d="M12.6118 0.771905C10.7148 -0.0703645 8.58453 -0.228836 6.58384 0.323492C4.58315 0.87582 2.83586 2.10477 1.6397 3.80095C0.44354 5.49713 -0.12749 7.55559 0.0239098 9.62559C0.17531 11.6956 1.03977 13.6491 2.47 15.1532C3.90023 16.6572 5.80774 17.6189 7.8675 17.8742C9.92726 18.1296 12.0118 17.6628 13.7661 16.5535C15.5203 15.4442 16.8356 13.761 17.4878 11.7906C17.6435 11.3205 17.3885 10.8132 16.9184 10.6576C16.4483 10.5019 15.941 10.7569 15.7854 11.227C15.2635 12.8035 14.2111 14.1503 12.8076 15.0378C11.404 15.9254 9.73615 16.2989 8.08812 16.0946C6.44009 15.8903 4.91389 15.1208 3.76955 13.9174C2.62522 12.714 1.93356 11.151 1.81242 9.49478C1.69129 7.83856 2.14817 6.19158 3.10523 4.83445C4.06228 3.47733 5.4603 2.49404 7.06106 2.05212C8.66183 1.6102 10.3663 1.73699 11.8841 2.41089C12.9801 2.89757 13.9299 3.64783 14.6538 4.58599H12.7537C12.2585 4.58599 11.8571 4.98743 11.8571 5.48264C11.8571 5.97784 12.2585 6.37928 12.7537 6.37928H16.6999C17.1951 6.37928 17.5966 5.97784 17.5966 5.48264V1.53643C17.5966 1.04123 17.1951 0.63979 16.6999 0.63979C16.2047 0.63979 15.8033 1.04123 15.8033 1.53643V3.15696C14.9375 2.13961 13.8492 1.32135 12.6118 0.771905Z" fill="var(--fill-0, #DDEAF0)"/>
</svg>
