<svg preserveAspectRatio="none" width="100%" height="100%" overflow="visible" style="display: block;" viewBox="0 0 15.3333 11" fill="none" xmlns="http://www.w3.org/2000/svg">
<path id="Wifi" d="M7.66708 2.28448C9.89181 2.28457 12.0315 3.13869 13.6438 4.67028C13.7652 4.78852 13.9593 4.78703 14.0789 4.66693L15.2395 3.4966C15.3 3.43569 15.3338 3.35318 15.3333 3.26733C15.3328 3.18148 15.2981 3.09937 15.2368 3.03917C11.0049 -1.01306 4.32858 -1.01306 0.0966636 3.03917C0.0353615 3.09933 0.000579128 3.18141 6.82817e-06 3.26726C-0.000551472 3.35311 0.0331472 3.43565 0.0936519 3.4966L1.2546 4.66693C1.3741 4.78721 1.56832 4.78871 1.68966 4.67028C3.30222 3.13859 5.44212 2.28447 7.66708 2.28448ZM7.66708 6.09206C8.88942 6.09199 10.0681 6.54594 10.9742 7.36571C11.0968 7.48206 11.2898 7.47954 11.4093 7.36003L12.5686 6.1897C12.6296 6.12831 12.6635 6.04504 12.6626 5.9585C12.6617 5.87196 12.6262 5.78939 12.5639 5.72926C9.8047 3.16485 5.53179 3.16485 2.77263 5.72926C2.7103 5.78939 2.67474 5.87201 2.67391 5.95857C2.67311 6.04513 2.7071 6.1284 2.76828 6.1897L3.92722 7.36003C4.04668 7.47954 4.23973 7.48206 4.36228 7.36571C5.26775 6.54648 6.44554 6.09257 7.66708 6.09206ZM9.89493 8.88514C9.95693 8.82434 9.99107 8.74068 9.9893 8.6539C9.98752 8.56712 9.94999 8.48492 9.88556 8.4267C8.6049 7.34443 6.72925 7.34443 5.44859 8.4267C5.38412 8.48487 5.34652 8.56705 5.34469 8.65383C5.34285 8.7406 5.37693 8.8243 5.43889 8.88514L7.44453 10.9071C7.50331 10.9666 7.58345 11 7.66708 11C7.7507 11 7.83084 10.9666 7.88963 10.9071L9.89493 8.88514Z" fill="var(--fill-0, #0F0F12)"/>
</svg>
