<svg xmlns="http://www.w3.org/2000/svg" width="28" height="28" viewBox="0 0 28 28" fill="none">
  <path d="M9.27525 3.51903C15.2157 0.583045 22.2879 2.52404 24.9295 8.18895C27.0162 12.6643 25.5912 17.9194 21.9706 21.3423L21.3895 24.9536C21.1318 26.5516 19.3427 27.3874 17.952 26.5571L15.0184 24.8052C10.1048 25.6181 5.155 23.4639 3.04869 18.9477C0.418533 13.3073 3.34567 6.44996 9.27525 3.51903ZM22.8905 9.14012C20.876 4.82008 15.2892 3.05638 10.2713 5.5366C5.24297 8.02236 3.06193 13.652 5.08775 17.9966C6.74913 21.5588 10.8071 23.3681 15.0106 22.521L15.1141 22.5044C15.3555 22.4787 15.6004 22.5323 15.8104 22.6577L19.1063 24.6255C19.1129 24.6293 19.1173 24.6308 19.119 24.6313C19.1207 24.6318 19.1222 24.6322 19.1239 24.6323C19.1279 24.6325 19.1354 24.6316 19.1444 24.6274C19.1533 24.6233 19.1593 24.6181 19.162 24.6147C19.1631 24.6133 19.1641 24.6116 19.1649 24.6098C19.1656 24.6082 19.1675 24.6038 19.1688 24.5962L19.8124 20.6001L19.8319 20.5054C19.8867 20.2866 20.006 20.0887 20.1756 19.938C23.4044 17.0711 24.5441 12.6869 22.8905 9.14012Z" fill="white"/>
</svg>
