<svg preserveAspectRatio="none" width="100%" height="100%" overflow="visible" style="display: block;" viewBox="0 0 28 28" fill="none" xmlns="http://www.w3.org/2000/svg">
<g id="like">
<path id="Union (Stroke)" d="M18.505 2.97898C22.7783 2.97898 26.242 6.44319 26.2423 10.7163C26.2423 10.9079 26.2326 11.0968 26.2188 11.2827L26.2139 11.4409C26.2087 11.6181 26.0431 15.9623 22.128 20.0679L21.7374 20.4643C19.6413 22.5224 17.8037 23.6815 16.4552 24.3296C15.7818 24.6532 15.233 24.8476 14.8389 24.9634C14.642 25.0212 14.4838 25.06 14.3682 25.0845C14.3107 25.0966 14.2635 25.1056 14.2276 25.1118C14.21 25.1148 14.1949 25.1167 14.1827 25.1186C14.1766 25.1196 14.1708 25.1209 14.1661 25.1216C14.1637 25.1219 14.1613 25.1223 14.1593 25.1225H14.1554C14.1547 25.1226 14.1537 25.123 14.002 24.0083L14.1534 25.1225L13.9737 25.1479L13.795 25.1137C13.5635 25.0704 10.2612 24.3858 6.16414 20.1538C3.29135 17.1862 2.31942 14.2339 1.99227 12.6147L1.89071 12.1538C1.80282 11.6874 1.75693 11.2068 1.75692 10.7163C1.75692 6.44963 5.21584 2.9907 9.4825 2.9907C11.1622 2.99076 12.7159 3.52982 13.9825 4.43992C15.254 3.52209 16.8164 2.97899 18.505 2.97898ZM4.01766 11.063C4.03195 11.292 4.06021 11.5168 4.10164 11.7368L4.17391 12.0639L4.18075 12.0932L4.1866 12.1225C4.43651 13.3952 5.23518 15.9592 7.78133 18.5893C10.8495 21.7585 13.3301 22.6503 14.0235 22.8511C14.0739 22.8383 14.1353 22.8257 14.2052 22.8052C14.4854 22.7228 14.9199 22.5707 15.4806 22.3012C16.6002 21.7631 18.2361 20.7491 20.1612 18.8589C22.9045 16.165 23.6711 13.3055 23.8839 12.0405L23.962 11.2886C23.9817 11.0982 23.9923 10.907 23.9923 10.7163C23.992 7.68562 21.5355 5.22898 18.505 5.22898C17.0539 5.22899 15.7367 5.79143 14.754 6.71238L13.9864 7.43309L13.2169 6.71434C12.2984 5.85673 11.089 5.31242 9.75203 5.24754L9.4825 5.2407C6.45848 5.2407 4.00692 7.69227 4.00692 10.7163L4.01766 11.063Z" fill="var(--fill-0, white)"/>
</g>
</svg>
