<svg preserveAspectRatio="none" width="100%" height="100%" overflow="visible" style="display: block;" viewBox="0 0 13.0833 13.3404" fill="none" xmlns="http://www.w3.org/2000/svg">
<path id="Outlined" fill-rule="evenodd" clip-rule="evenodd" d="M9.37703 0.573921C7.96663 -0.0523169 6.38271 -0.170143 4.89517 0.240521C3.40763 0.651184 2.1085 1.56493 1.21914 2.82606C0.329777 4.08719 -0.0947904 5.61768 0.0177773 7.15676C0.130345 8.69583 0.773083 10.1483 1.83648 11.2666C2.89987 12.3849 4.31813 13.0999 5.84959 13.2897C7.38105 13.4796 8.93096 13.1325 10.2352 12.3078C11.5395 11.483 12.5175 10.2314 13.0024 8.76645C13.1182 8.41692 12.9286 8.03976 12.5791 7.92405C12.2295 7.80834 11.8524 7.99789 11.7367 8.34742C11.3486 9.51957 10.5662 10.5209 9.52261 11.1808C8.47905 11.8408 7.23896 12.1184 6.01363 11.9665C4.78829 11.8146 3.65354 11.2425 2.80271 10.3478C1.95188 9.45301 1.43763 8.29092 1.34756 7.0595C1.25749 5.82807 1.59719 4.60352 2.30878 3.59448C3.02036 2.58544 4.0598 1.85435 5.24999 1.52578C6.44018 1.1972 7.70748 1.29147 8.83595 1.79253C9.6509 2.15438 10.357 2.71221 10.8953 3.40974H9.48255C9.11436 3.40974 8.81588 3.70822 8.81588 4.07641C8.81588 4.4446 9.11436 4.74308 9.48255 4.74308H12.4166C12.7848 4.74308 13.0833 4.4446 13.0833 4.07641V1.14236C13.0833 0.774169 12.7848 0.475693 12.4166 0.475693C12.0484 0.475693 11.7499 0.774169 11.7499 1.14236V2.34724C11.1062 1.59083 10.2971 0.982442 9.37703 0.573921Z" fill="var(--fill-0, white)" fill-opacity="0.4"/>
</svg>
