<svg xmlns="http://www.w3.org/2000/svg" width="22" height="22" viewBox="0 0 22 22" fill="none">
  <path fill-rule="evenodd" clip-rule="evenodd" d="M7.19876 2.55999C9.09571 1.71772 11.226 1.55925 13.2267 2.11158C15.2274 2.66391 16.9747 3.89286 18.1708 5.58904C19.367 7.28522 19.938 9.34368 19.7866 11.4137C19.6352 13.4837 18.7708 15.4371 17.3405 16.9412C15.9103 18.4453 14.0028 19.407 11.943 19.6623C9.88328 19.9177 7.7987 19.4509 6.04449 18.3416C4.29028 17.2323 2.97498 15.549 2.3227 13.5787C2.16707 13.1086 2.42201 12.6013 2.89212 12.4457C3.36224 12.29 3.8695 12.545 4.02513 13.0151C4.54702 14.5916 5.5994 15.9384 7.00295 16.8259C8.40651 17.7135 10.0744 18.0869 11.7224 17.8826C13.3705 17.6783 14.8967 16.9089 16.041 15.7055C17.1853 14.5021 17.877 12.9391 17.9981 11.2829C18.1193 9.62665 17.6624 7.97966 16.7053 6.62254C15.7483 5.26542 14.3503 4.28212 12.7495 3.8402C11.1487 3.39828 9.44425 3.52508 7.92649 4.19898C6.83041 4.68565 5.88069 5.43591 5.1567 6.37408H7.05684C7.55204 6.37408 7.95348 6.77552 7.95348 7.27072C7.95348 7.76592 7.55204 8.16737 7.05684 8.16737H3.11063C2.61543 8.16737 2.21399 7.76592 2.21399 7.27072V3.32452C2.21399 2.82932 2.61543 2.42788 3.11063 2.42788C3.60584 2.42788 4.00728 2.82932 4.00728 3.32452V4.94505C4.8731 3.9277 5.9613 3.10944 7.19876 2.55999Z" fill="#DDEAF0"/>
</svg>
