<svg preserveAspectRatio="none" width="100%" height="100%" overflow="visible" style="display: block;" viewBox="0 0 17 10.6667" fill="none" xmlns="http://www.w3.org/2000/svg">
<path id="Cellular Connection" d="M1 6.66667H2C2.55228 6.66667 3 7.11438 3 7.66667V9.66667C3 10.219 2.55228 10.6667 2 10.6667H1C0.447715 10.6667 0 10.219 0 9.66667V7.66667C0 7.11438 0.447715 6.66667 1 6.66667ZM5.66667 4.66667H6.66667C7.21895 4.66667 7.66667 5.11438 7.66667 5.66667V9.66667C7.66667 10.219 7.21895 10.6667 6.66667 10.6667H5.66667C5.11438 10.6667 4.66667 10.219 4.66667 9.66667V5.66667C4.66667 5.11438 5.11438 4.66667 5.66667 4.66667ZM10.3333 2.33333H11.3333C11.8856 2.33333 12.3333 2.78105 12.3333 3.33333V9.66667C12.3333 10.219 11.8856 10.6667 11.3333 10.6667H10.3333C9.78105 10.6667 9.33333 10.219 9.33333 9.66667V3.33333C9.33333 2.78105 9.78105 2.33333 10.3333 2.33333ZM15 0H16C16.5523 0 17 0.447715 17 1V9.66667C17 10.219 16.5523 10.6667 16 10.6667H15C14.4477 10.6667 14 10.219 14 9.66667V1C14 0.447715 14.4477 0 15 0Z" fill="var(--fill-0, #090C14)"/>
</svg>
