<svg xmlns="http://www.w3.org/2000/svg" width="28" height="28" viewBox="0 0 28 28" fill="none">
  <path d="M18.5049 2.979C22.7782 2.979 26.2419 6.44321 26.2422 10.7163C26.2422 10.9079 26.2325 11.0968 26.2188 11.2827L26.2139 11.4409C26.2086 11.6182 26.043 15.9623 22.1279 20.0679L21.7373 20.4644C19.6413 22.5224 17.8036 23.6815 16.4551 24.3296C15.7817 24.6532 15.2329 24.8477 14.8389 24.9634C14.642 25.0212 14.4837 25.06 14.3682 25.0845C14.3106 25.0967 14.2634 25.1056 14.2275 25.1118C14.2099 25.1149 14.1948 25.1168 14.1826 25.1187C14.1765 25.1196 14.1707 25.1209 14.166 25.1216C14.1636 25.1219 14.1612 25.1223 14.1592 25.1226H14.1553C14.1546 25.1226 14.1536 25.123 14.002 24.0083L14.1533 25.1226L13.9736 25.1479L13.7949 25.1138C13.5634 25.0704 10.2611 24.3858 6.16406 20.1538C3.29127 17.1862 2.31934 14.234 1.99219 12.6147L1.89062 12.1538C1.80274 11.6874 1.75685 11.2068 1.75684 10.7163C1.75684 6.44965 5.21576 2.99072 9.48242 2.99072C11.1621 2.99078 12.7158 3.52984 13.9824 4.43994C15.2539 3.52211 16.8163 2.97901 18.5049 2.979ZM4.01758 11.063C4.03186 11.292 4.06013 11.5169 4.10156 11.7368L4.17383 12.064L4.18066 12.0933L4.18652 12.1226C4.43643 13.3952 5.2351 15.9593 7.78125 18.5894C10.8495 21.7585 13.33 22.6504 14.0234 22.8511C14.0739 22.8384 14.1352 22.8257 14.2051 22.8052C14.4853 22.7229 14.9198 22.5707 15.4805 22.3013C16.6002 21.7631 18.2361 20.7491 20.1611 18.8589C22.9045 16.165 23.6711 13.3056 23.8838 12.0405L23.9619 11.2886C23.9816 11.0982 23.9922 10.907 23.9922 10.7163C23.992 7.68564 21.5354 5.229 18.5049 5.229C17.0539 5.22901 15.7366 5.79145 14.7539 6.7124L13.9863 7.43311L13.2168 6.71436C12.2983 5.85675 11.0889 5.31244 9.75195 5.24756L9.48242 5.24072C6.4584 5.24072 4.00684 7.69229 4.00684 10.7163L4.01758 11.063Z" fill="white"/>
</svg>
<svg xmlns="http://www.w3.org/2000/svg" width="28" height="28" viewBox="0 0 28 28" fill="none">
  <path d="M18.5049 2.979C22.7782 2.979 26.2419 6.44321 26.2422 10.7163C26.2422 10.9079 26.2325 11.0968 26.2188 11.2827L26.2139 11.4409C26.2086 11.6182 26.043 15.9623 22.1279 20.0679L21.7373 20.4644C19.6413 22.5224 17.8036 23.6815 16.4551 24.3296C15.7817 24.6532 15.2329 24.8477 14.8389 24.9634C14.642 25.0212 14.4837 25.06 14.3682 25.0845C14.3106 25.0967 14.2634 25.1056 14.2275 25.1118C14.2099 25.1149 14.1948 25.1168 14.1826 25.1187C14.1765 25.1196 14.1707 25.1209 14.166 25.1216C14.1636 25.1219 14.1612 25.1223 14.1592 25.1226H14.1553C14.1546 25.1226 14.1536 25.123 14.002 24.0083L14.1533 25.1226L13.9736 25.1479L13.7949 25.1138C13.5634 25.0704 10.2611 24.3858 6.16406 20.1538C3.29127 17.1862 2.31934 14.234 1.99219 12.6147L1.89062 12.1538C1.80274 11.6874 1.75685 11.2068 1.75684 10.7163C1.75684 6.44965 5.21576 2.99072 9.48242 2.99072C11.1621 2.99078 12.71  <path d="M18.5049 2.979C22.7782 2.979 26.2419 6.44321 01 18.5049 2.979ZM4.01758 11.063C4.03186 11.292 4.06013 11.5169 4.10156 11.7368L4.17383 12.064L4.18066 12.0933L4.18652 12.1226C4.43643 13.3952 5.2351 15.9593 7.78125 18.5894C10.8495 21.7585 13.33 22.6504 14.0234 22.8511C14.0739 22.8384 14.1352 22.8257 14.2051 22.8052C14.4853 22.7229 14.9198 22.5707 15.4805 22.3013C16.6002 21.7631 18.2361 20.7491 20.1611 18.8589C22.9045 16.165 23.6711 13.3056 23.8838 12.0405L23.9619 11.2886C23.9816 11.0982 23.9922 10.907 23.9922 10.7163C23.992 7.68564 21.5354 5.229 18.5049 5.229C17.0539 5.22901 15.7366 5.79145 14.7539 6.7124L13.9863 7.43311L13.2168 6.71436C12.2983 5.85675 11.0889 5.31244 9.75195 5.24756L9.48242 5.24072C6.4584 5.24072 4.00684 7.69229 4.00684 10.7163L4.01758 11.063Z" fill="white"/>
</svg>
