<svg preserveAspectRatio="none" width="100%" height="100%" overflow="visible" style="display: block;" viewBox="0 0 24.748 28" fill="none" xmlns="http://www.w3.org/2000/svg">
<path id="User 2" d="M10.748 0C18.48 0 24.748 6.26801 24.748 14C24.748 21.732 18.48 28 10.748 28C6.42898 28 2.56811 26.043 0 22.9688C0.0977969 22.8245 0.191997 22.6778 0.285156 22.5303C2.76071 25.563 6.5279 27.5 10.748 27.5C18.2039 27.5 24.248 21.4558 24.248 14C24.248 6.54416 18.2039 0.5 10.748 0.5C6.52817 0.5 2.76072 2.43632 0.285156 5.46875C0.191992 5.32123 0.0978009 5.17448 0 5.03027C2.56812 1.95632 6.42925 0 10.748 0Z" fill="var(--fill-0, white)"/>
</svg>
