<svg preserveAspectRatio="none" width="100%" height="100%" overflow="visible" style="display: block;" viewBox="0 0 32 32" fill="none" xmlns="http://www.w3.org/2000/svg">
<path id="Rectangle 1746713690" opacity="0" d="M5.14991e-08 22.4C3.4249e-08 14.5593 2.5624e-08 10.6389 1.52591 7.64413C2.86814 5.00986 5.00986 2.86814 7.64413 1.52591C10.6389 -2.30776e-08 14.5593 -3.15815e-08 22.4 -4.85894e-08L43.6 -9.45758e-08C51.4407 -1.11584e-07 55.3611 -1.20088e-07 58.3559 1.52591C60.9901 2.86814 63.1319 5.00986 64.4741 7.64413C66 10.6389 66 14.5593 66 22.4L66 102.6C66 110.441 66 114.361 64.4741 117.356C63.1319 119.99 60.9901 122.132 58.3559 123.474C55.3611 125 51.4407 125 43.6 125L22.4 125C14.5593 125 10.6389 125 7.64413 123.474C5.00986 122.132 2.86814 119.99 1.52591 117.356C2.53819e-07 114.361 2.45194e-07 110.441 2.27944e-07 102.6L5.14991e-08 22.4Z" fill="var(--fill-0, black)" fill-opacity="0.32"/>
</svg>
