<svg preserveAspectRatio="none" width="100%" height="100%" overflow="visible" style="display: block;" viewBox="0 0 16 16" fill="none" xmlns="http://www.w3.org/2000/svg">
<g id="like">
<path id="Union (Stroke)" d="M10.3845 2.51587C12.3984 2.61804 13.9997 4.28316 13.9997 6.32251C13.9997 6.41474 13.9954 6.50556 13.989 6.59497L13.986 6.677C13.9827 6.78329 13.8902 9.03819 11.7956 11.095C9.76401 13.0897 8.23159 13.3517 8.08565 13.3723L7.98897 13.386L7.89326 13.3684L8.00166 12.7786C7.89888 13.3358 7.8929 13.3667 7.89229 13.3684H7.89034L7.87862 13.3655C7.87252 13.3642 7.86505 13.3625 7.85616 13.3606C7.8381 13.3566 7.81402 13.3514 7.78487 13.344C7.72659 13.3291 7.64675 13.3067 7.54756 13.2737C7.34887 13.2076 7.07267 13.0996 6.73701 12.927C6.06436 12.5811 5.15758 11.9782 4.15596 10.9436C2.76463 9.5064 2.28645 8.07508 2.12178 7.27661C2.06257 7.04737 2.0239 6.81035 2.0085 6.56763L2.00069 6.32251C2.00085 4.2208 3.70448 2.51685 5.80635 2.51685C6.62097 2.51694 7.37406 2.77439 7.99092 3.20923C8.6109 2.77012 9.36898 2.51103 10.1882 2.51099L10.3845 2.51587ZM3.19991 6.32251C3.19991 6.49268 3.21607 6.65859 3.24678 6.8186L3.28291 6.97681L3.28682 6.99341L3.28975 7.00903C3.41285 7.62449 3.79913 8.85127 5.01729 10.1096C5.92727 11.0496 6.72889 11.5732 7.28584 11.8596C7.5646 12.0029 7.78369 12.0875 7.92647 12.135C7.95856 12.1457 7.9872 12.1532 8.01143 12.1604C8.34226 12.0746 9.47179 11.6966 10.9558 10.2395C12.2833 8.93588 12.6486 7.55202 12.7487 6.94946L12.7858 6.59497C12.7952 6.50412 12.8005 6.4132 12.8005 6.32251L12.7868 6.05591C12.6533 4.73867 11.5406 3.71021 10.1882 3.71021C9.4978 3.71025 8.87173 3.98008 8.40303 4.42017L7.99287 4.80493L7.58272 4.42114C7.1735 4.03872 6.64528 3.78597 6.06026 3.72876L5.80635 3.71606C4.36733 3.71606 3.20004 4.8834 3.19991 6.32251Z" fill="var(--fill-0, #E0F5FF)" fill-opacity="0.6"/>
</g>
</svg>
