<svg xmlns="http://www.w3.org/2000/svg" width="28" height="28" viewBox="0 0 28 28" fill="none">
  <path d="M19.5567 21.814C18.7899 23.6074 16.2753 23.684 15.4005 21.9408L14.4174 19.9802C13.8968 20.236 13.2365 20.6036 12.6066 21.0789C11.3274 22.044 10.1141 23.6897 9.78522 25.5193C9.5851 26.6936 8.13858 27.186 7.27763 26.3438L7.19524 26.2572L6.69329 25.6799C6.50829 25.4643 6.30877 25.2278 6.10383 24.9796C4.52348 23.0657 3.98314 20.4367 4.01806 18.0411C4.05297 15.6465 4.66543 13.2508 5.64976 11.6965C6.72815 9.9939 7.91121 8.84735 8.70686 8.18924C8.75448 8.14972 8.78864 8.09543 8.80301 8.04419C8.81642 7.99621 8.80759 7.97137 8.80433 7.96384L7.73463 5.49193C6.96288 3.70946 8.61919 1.83572 10.4829 2.38293L23.4503 6.19001C24.7675 6.57698 25.4507 8.02759 24.9109 9.28993L19.5567 21.814ZM17.478 20.9472C17.4788 20.9463 17.4831 20.9414 17.4881 20.9296L22.8424 8.4055C22.846 8.39708 22.8464 8.39193 22.8463 8.38856C22.8462 8.38403 22.8456 8.37764 22.8424 8.37098C22.8393 8.36433 22.8349 8.35969 22.8315 8.3567C22.8289 8.35449 22.8248 8.35145 22.816 8.34885L9.8494 4.54136C9.83697 4.53771 9.83049 4.53775 9.8294 4.53775C9.82837 4.53777 9.82778 4.53752 9.82722 4.5377C9.82504 4.53837 9.81576 4.54287 9.8058 4.55415C9.79604 4.5653 9.79333 4.57517 9.79293 4.57739L9.79245 4.57869C9.79254 4.57947 9.79404 4.58583 9.79935 4.5981L10.8691 7.07001C11.3272 8.12819 10.9196 9.27917 10.1406 9.92356C9.48578 10.4652 8.47618 11.4391 7.55056 12.9006C6.8479 14.01 6.29879 15.9668 6.26805 18.0738C6.23734 20.1797 6.72718 22.2013 7.83898 23.5477C7.88036 23.5978 7.92296 23.6463 7.96383 23.6953C8.65215 21.8316 9.93605 20.2756 11.251 19.2834C12.0622 18.6713 12.8909 18.218 13.5063 17.9203C14.646 17.369 15.9013 17.9208 16.4135 18.9416L17.4116 20.9319C17.4177 20.944 17.4224 20.9487 17.4229 20.9492L17.4242 20.9497C17.4261 20.9508 17.4353 20.9552 17.4503 20.9548C17.4655 20.9543 17.4744 20.9493 17.4763 20.9481L17.478 20.9472Z" fill="white"/>
</svg>
